# xmcd CD database file
#
# Track frame offsets:
#	150
#	18870
#	41485
#	56205
#	72998
#	92548
#	110205
#	129140
#	153585
#	175148
#	193290
#	209988
#	231313
#	250840
#	270648
#	287750
#
# Disc length: 4076 seconds
#
# Revision: 1
# Processed by: cddbd v1.5.1PL0 Copyright (c) Steve Scherf et al.
# Submitted via: CDex 1.51
#
DISCID=f20fea10
DTITLE=Various Artist - 演歌決定版6　〜大阪しぐれ〜
DYEAR=1900
DGENRE=演歌
TTITLE0=忍ぶ雨　/　松原のぶえ
TTITLE1=むらさき雨情　/　多岐川舞子
TTITLE2=なみだ恋　/　八代亜紀
TTITLE3=氷雨　/　佳山明生
TTITLE4=蜩（ひぐらし）　/　多岐川舞子
TTITLE5=蒼月（つき）　/　田川寿美
TTITLE6=流恋草　/　都はるみ
TTITLE7=夜桜お七　/　田川寿美
TTITLE8=天城越え　/　桂川宗子
TTITLE9=戻り川　/　大川栄策
TTITLE10=おまえに惚れた　/　美空ひばり
TTITLE11=友禅流し　/　松原のぶえ
TTITLE12=こころ酒　/　田川寿美
TTITLE13=酒きずな　/　多岐川舞子
TTITLE14=北酒場　/　細川たかし
TTITLE15=大阪しぐれ　/　都はるみ
EXTD=
EXTT0=
EXTT1=
EXTT2=
EXTT3=
EXTT4=
EXTT5=
EXTT6=
EXTT7=
EXTT8=
EXTT9=
EXTT10=
EXTT11=
EXTT12=
EXTT13=
EXTT14=
EXTT15=
PLAYORDER=
